<svg xmlns="http://www.w3.org/2000/svg" width="32.269" height="42.947" viewBox="0 0 32.269 42.947">
  <g id="Group_1262" data-name="Group 1262" transform="translate(-75.322 -1321.263)">
    <path id="Path_620" data-name="Path 620" d="M106.573,1364.706H76.34a.853.853,0,0,1-.818-.885v-29.311a.853.853,0,0,1,.818-.884h30.233a.853.853,0,0,1,.818.884v29.311A.853.853,0,0,1,106.573,1364.706Zm-29.415-1.769h28.6V1335.4h-28.6Z" transform="translate(0 -0.697)" fill="#807979" stroke="#807979" stroke-linecap="round" stroke-linejoin="round" stroke-width="0.4"/>
    <path id="Path_621" data-name="Path 621" d="M84.275,1338.629a.794.794,0,0,1-.716-.694c-.07-.32-1.669-7.926,1.227-12.74a7.67,7.67,0,0,1,7.058-3.733,8.068,8.068,0,0,1,7.252,3.77c3.071,4.8,1.864,12.33,1.812,12.648-.085.509-.479.835-.88.729a.966.966,0,0,1-.576-1.116c.011-.07,1.111-6.984-1.515-11.078a6.754,6.754,0,0,0-6.094-3.067,6.351,6.351,0,0,0-5.876,2.99c-2.455,4.08-.99,11.029-.975,11.1a.992.992,0,0,1-.521,1.158A.585.585,0,0,1,84.275,1338.629Z" transform="translate(-0.431 0)" fill="#807979" stroke="#807979" stroke-width="0.4"/>
  </g>
</svg>
