<svg xmlns="http://www.w3.org/2000/svg" width="29.173" height="29.146" viewBox="0 0 29.173 29.146">
  <g id="Group_6776" data-name="Group 6776" transform="translate(0 0)">
    <g id="Group_1259" data-name="Group 1259" transform="translate(5.159)">
      <path id="Path_640" data-name="Path 640" d="M-248.408,3978.344a12.021,12.021,0,0,1,12.007-12.008,12.022,12.022,0,0,1,12.007,12.008A12.021,12.021,0,0,1-236.4,3990.35,12.02,12.02,0,0,1-248.408,3978.344Zm2.356,0a9.661,9.661,0,0,0,9.651,9.649,9.66,9.66,0,0,0,9.65-9.649,9.662,9.662,0,0,0-9.65-9.652A9.663,9.663,0,0,0-246.052,3978.344Z" transform="translate(248.408 -3966.337)" fill="#807979"/>
    </g>
    <g id="Group_1260" data-name="Group 1260" transform="translate(0 18.472)">
      <path id="Path_641" data-name="Path 641" d="M-251.863,3993.6a1.17,1.17,0,0,0,.833-.346l8.318-8.317a1.177,1.177,0,0,0,0-1.665,1.175,1.175,0,0,0-1.666,0l-8.318,8.317a1.177,1.177,0,0,0,0,1.665A1.174,1.174,0,0,0-251.863,3993.6Z" transform="translate(253.041 -3982.925)" fill="#807979"/>
    </g>
  </g>
</svg>
